<?xml version="1.0" encoding="UTF-8"?>
<svg id="Layer_2" data-name="Layer 2" xmlns="http://www.w3.org/2000/svg" viewBox="0 0 308.3 402.43">
  <defs>
    <style>
      .cls-1 {
        fill: #ff3636;
      }
    </style>
  </defs>
  <g id="Layer_1-2" data-name="Layer 1">
    <path class="cls-1" d="m280.78,222.84l12.7-11.79c32.47-29.83,7.65-84.35-36.07-78.61-4.23.56-8.66,1.31-13.28,2.26l17.77-17.77,18.88-17.35h0l12.7-11.67c32.47-29.83,7.65-84.35-36.07-78.61-10.74,1.41-22.71,4.05-35.95,8.1l-103.26,32.35c-43.54,13.67-55.37,3.74-55.37-7.48,0-12.43,13.7-22.39,30.48-36.69V0C52.87,31.71,0,70.91,0,111.95c0,21.45,15.67,41.95,53.73,42.94C24.98,179.53,0,206.87,0,235.08c0,21.71,16.07,42.45,55.16,42.97C25.81,303,0,330.78,0,359.45c0,30.51,31.71,59.12,114.46,32.35l112.62-36.06c13.7-4.47,22.5-4.52,27.83-2.26,2.42,1.03,3.59,3.87,2.62,6.31-4.71,11.84-27.6,36.57-27.6,36.57l31.98-31.98s0,.03,0,.04l31.58-29.01c32.47-29.83,7.65-84.35-36.07-78.61-4.66.61-9.57,1.47-14.7,2.56l19.19-19.19,18.88-17.35Zm-53.84-114.47c14.04-4.58,22.93-4.52,28.21-2.09h0s.02.01.04.02c2.18,1.01,3.17,3.58,2.33,5.83-2.23,5.94-9.34,15.35-15.8,23.19-6.43,1.4-13.22,3.16-20.39,5.36l-103.26,32.35c-43.54,13.67-55.37,3.74-55.37-7.48,0-3.79,1.28-7.34,3.52-10.86,13.63-1.04,29.59-4.25,48.11-10.25l112.62-36.06Zm28.51,121.18h0c1.96.96,2.96,3.22,2.26,5.29-2.1,6.23-10.18,16.77-17.12,25.08-6.1,1.36-12.52,3.05-19.27,5.12l-103.26,32.35c-43.54,13.67-55.37,3.74-55.37-7.48,0-4.25,1.61-8.22,4.39-12.16,13.43-1.11,29.11-4.32,47.24-10.18l112.62-36.06c14.19-4.63,23.13-4.52,28.39-2.01l-.18.05c.1,0,.2,0,.3.01Z"/>
  </g>
</svg>