<?xml version="1.0" encoding="UTF-8"?>
<svg id="Layer_2" data-name="Layer 2" xmlns="http://www.w3.org/2000/svg" viewBox="0 0 1041.62 284.77">
  <defs>
    <style>
      .cls-1 {
        fill: #ff3636;
      }
    </style>
  </defs>
  <g id="Layer_1-2" data-name="Layer 1">
    <path class="cls-1" d="m1038.4,229.96c-8.24,9.67-13.97,17.55-21.13,17.55-6.45,0-12.18-6.81-4.3-31.88l18.63-59.46c13.25-43.34.36-63.04-20.78-63.04-29.37,0-58.74,38.68-90.98,114.98l-11.1,26.15h-3.22l-.36.36,24-78.44c13.61-43.7.36-63.04-20.42-63.04-29.01,0-58.39,38.33-90.27,114.62l-11.46,26.51h-3.22l22.92-78.44c13.25-46.21.36-62.68-17.55-62.68-22.04,0-43.77,25.36-61.32,47.81-13.54-34.17-44.72-57.13-89.48-57.13-48.53,0-86.65,28.19-95.49,76.66-8.31-44.67-42.22-76.66-95.07-76.66-55.52,0-97.43,36.89-97.43,98.86,0,17.34,3.12,33.34,9.11,47.28h-.15c-7.52,9.67-13.97,17.55-20.78,17.55-6.45,0-11.82-6.81-4.66-31.88L416.22,0h-.36l-81.67,24.36v1.79l18.63,6.09-53.01,185.55c-3.02,10.67-4.66,19.84-5.19,27.67-1.98,1.31-3.93,2.06-5.91,2.06-6.45,0-11.82-6.45-4.3-31.88l34.39-121.79h-1.79l-14.69,16.84c-20.42-9.67-35.82-17.55-52.3-17.55-42.23,0-106.48,51.59-126.41,106.39-4.66-10.84-13.51-23.19-28.33-40.84-19.34-23.28-26.15-33.67-26.15-43.34s6.8-16.48,18.27-16.48c20.78,0,36.54,21.13,46.57,44.77,8.24-4.3,14.33-11.82,14.33-22.21,0-17.19-17.55-28.3-45.13-28.3-42.27,0-79.16,25.07-79.16,55.16,0,14.69,8.24,29.37,33.31,60.18,21.13,25.79,28.3,37.97,28.3,49.43s-7.16,17.91-18.63,17.91c-17.55,0-37.61-15.76-50.86-45.49-8.96,5.01-16.12,12.54-16.12,24.36,0,17.19,15.76,29.01,44.77,29.01,32.57,0,60.78-15.19,74.4-36.18,5.16,22.97,21.37,36.18,37.35,36.18,28.66,0,45.13-43.7,79.88-114.98l10.75-21.49h3.22l-20.06,69.13c-14.33,49.43,0,67.34,18.27,67.34,16.12,0,31.72-14.59,45.86-31.3.46,22.29,11.41,31.3,24.35,31.3,22.46,0,43.91-28.33,61.8-51.23,14.73,31.85,44.88,52.3,87.21,52.3,49.36,0,86.46-28.89,95.14-78.82,8.33,46.57,42.28,78.82,95.42,78.82,56.59,0,97.07-37.97,97.07-102.09,0-13.89-2.22-26.99-6.48-38.82,7.29-8.81,14.08-16.34,21.17-16.34,6.09,0,10.03,5.02,4.3,25.07l-36.89,126.8h55.52l28.66-67.7c24-57.31,37.97-78.8,50.86-78.8,5.37,0,10.39,4.66,5.37,20.06l-40.48,126.44h57.31l28.66-67.7c24-56.95,37.97-78.8,50.86-78.8,5.37,0,10.03,4.66,5.02,20.06l-20.78,64.83c-15.4,47.64,1.07,65.91,18.63,65.91,23.64,0,46.21-30.45,64.48-53.73h-3.22Zm-805.57-63.4c-25.07,51.58-36.54,73.79-48,73.79-5.73,0-11.46-5.73-11.46-25.07,0-52.3,34.39-114.98,61.25-114.98,9.67,0,18.27,8.24,23.64,13.97l-25.43,52.3Zm234.97,82.03c-31.16,0-54.45-24.36-54.45-65.91,0-37.61,21.49-62.68,54.45-62.68s54.09,25.07,54.09,62.68-20.06,65.91-54.09,65.91Zm190.56,0c-31.16,0-54.45-24.36-54.45-65.91,0-37.61,21.49-62.68,54.45-62.68s54.09,25.07,54.09,62.68-20.06,65.91-54.09,65.91Z"/>
  </g>
</svg>